<svg xmlns="http://www.w3.org/2000/svg" viewBox="0 0 3741.87 1800"><defs><style>.cls-1,.cls-30{fill:#06d6a0;}.cls-2{fill:#41f2c0;}.cls-3{fill:#a07262;}.cls-4{fill:#12b586;}.cls-10,.cls-18,.cls-19,.cls-22,.cls-23,.cls-24,.cls-25,.cls-32,.cls-5,.cls-6,.cls-9{fill:none;}.cls-17,.cls-18,.cls-19,.cls-21,.cls-22,.cls-24,.cls-5,.cls-9{stroke:#ffd166;}.cls-10,.cls-17,.cls-18,.cls-19,.cls-21,.cls-22,.cls-23,.cls-24,.cls-25,.cls-5,.cls-6,.cls-9{stroke-linecap:round;}.cls-10,.cls-17,.cls-18,.cls-19,.cls-21,.cls-22,.cls-23,.cls-24,.cls-25,.cls-32,.cls-5,.cls-6,.cls-9{stroke-miterlimit:10;}.cls-5{stroke-width:18px;stroke-dasharray:5 60;}.cls-6{stroke:#2e00ab;stroke-width:5px;}.cls-21,.cls-7{fill:#2e86ab;}.cls-17,.cls-8{fill:#429cbc;}.cls-23,.cls-25,.cls-9{stroke-width:60px;}.cls-10,.cls-23{stroke:#2e86ab;}.cls-10{stroke-width:12px;}.cls-11{fill:#ffd166;}.cls-12{fill:#f9c45a;}.cls-13{fill:#ffdc97;}.cls-14{fill:#ef476f;}.cls-15{fill:#fff;}.cls-16{fill:#2e00ab;}.cls-17,.cls-24{stroke-width:14px;}.cls-18,.cls-19{stroke-width:8px;}.cls-19{stroke-dasharray:9.83 9.83;}.cls-20{fill:#244247;}.cls-21,.cls-22,.cls-32{stroke-width:6px;}.cls-25{stroke:#e09999;}.cls-26{fill:#ebbab9;}.cls-27{fill:#f4dfdf;}.cls-28{fill:#e09999;}.cls-29{fill:#3706ea;}.cls-30{opacity:0.58;}.cls-31{fill:#227a99;}.cls-32{stroke:#3706ea;}</style></defs><title>jumbo</title><g id="Layer_2" data-name="Layer 2"><polygon class="cls-1" points="3741.87 1800 -1.08 1800 0 0 3741.87 0 3741.87 1800"/><path class="cls-2" d="M-1.08,1465.52s1792.24-524.23,3741.7-57.35V0H0Z"/><rect class="cls-3" x="3141.74" y="582.92" width="132.82" height="807.37" rx="12" ry="12"/><rect class="cls-3" x="420.14" y="657.8" width="132.82" height="807.37" rx="12" ry="12"/><rect class="cls-3" x="2528.61" y="456.67" width="66.41" height="863.9" rx="12" ry="12"/><circle class="cls-4" cx="3208.15" cy="582.92" r="344.03"/><circle class="cls-4" cx="213.25" cy="869.76" r="344.03"/><circle class="cls-4" cx="730.29" cy="899.54" r="344.03"/><circle class="cls-4" cx="326.31" cy="491.38" r="230.97"/><circle class="cls-4" cx="617.23" cy="459.9" r="230.97"/><circle class="cls-4" cx="2561.82" cy="323.73" r="244.3"/><ellipse class="cls-4" cx="2561.82" cy="888.98" rx="354.51" ry="278.21"/><path class="cls-4" d="M303,1328.91h0a183.56,183.56,0,0,1,183.56,183.56v0a77.15,77.15,0,0,1-77.15,77.15H196.58a77.15,77.15,0,0,1-77.15-77.15v0A183.56,183.56,0,0,1,303,1328.91Z"/><path class="cls-4" d="M95.34,1381h0A183.56,183.56,0,0,1,278.9,1564.57v0a77.15,77.15,0,0,1-77.15,77.15H-11.07a77.15,77.15,0,0,1-77.15-77.15v0A183.56,183.56,0,0,1,95.34,1381Z"/><path class="cls-4" d="M3168.15,1136.64H3381a77.15,77.15,0,0,1,77.15,77.15v0a183.56,183.56,0,0,1-183.56,183.56h0A183.56,183.56,0,0,1,3091,1213.8v0A77.15,77.15,0,0,1,3168.15,1136.64Z" transform="translate(6549.11 2534) rotate(-180)"/><path class="cls-4" d="M3403.2,1224.61H3616a77.15,77.15,0,0,1,77.15,77.15v0a183.56,183.56,0,0,1-183.56,183.56h0A183.56,183.56,0,0,1,3326,1301.76v0a77.15,77.15,0,0,1,77.15-77.15Z" transform="translate(7019.21 2709.93) rotate(-180)"/><path class="cls-5" d="M-88.22,568s1418.87-58.15,1913.7-671.63"/><path class="cls-6" d="M-88.22,555.51s1418.87-58.15,1913.7-671.63"/><path class="cls-5" d="M-1.08,596.67S1579.38,658.06,2058.75.5"/><path class="cls-6" d="M0,584.19S1559,658.26,2059.83-12"/><path class="cls-5" d="M3842.78,655.15s-1642.94-67.36-2215.92-778.1"/><path class="cls-6" d="M3842.78,640.65S2199.84,573.28,1626.86-137.46"/><path class="cls-5" d="M3741.87,688.33s-1830,71.13-2385.11-690.68"/><path class="cls-6" d="M3740.62,673.87S1935.41,759.69,1355.51-16.81"/><path class="cls-7" d="M2321.26,859.79l-4-1c-93.19-22.86-188.71,31.9-213.13,121.84a20.54,20.54,0,0,1,17.74-10c11.29,0,20.45,8.87,20.45,19.82,0,.41,0,.81-.06,1.22l.56.13a20.53,20.53,0,0,1,17.89-10.27c11.25,0,20.36,8.8,20.44,19.68l.38.09a20.55,20.55,0,0,1,17-8.87,20.18,20.18,0,0,1,20.31,18l.68.16a20.64,20.64,0,0,1,15.81-7.29,20.29,20.29,0,0,1,20.06,16.06,20.66,20.66,0,0,1,15.71-7.14,20.31,20.31,0,0,1,20.05,16l157.37,38.61h0C2472.28,976,2415,882.79,2321.26,859.79Z"/><path class="cls-8" d="M2336.87,863s152.6,49.36,104.33,203.87l-17.71-6.15S2477.85,964.87,2336.87,863Z"/><path class="cls-8" d="M2341.16,869.3c.26.13.52.25.76.4,51.85,31.47,78.33,127.72,67.14,160.56-4.35,1.51-49.76-3.42-53.35,2-.23.35,17.39,13.44,17.18,13.78l-18.17-12.79c1.69-6,10.11,3.75,6.78,1.23,28.63-70.84,7.33-147.36-25.48-169.85,2.08,1.42,2.32,3.24,4.46,4.3Z"/><path class="cls-8" d="M2336.2,864.15q-7.29-2.49-14.94-4.36l-4-1c-93.19-22.86-188.71,31.9-213.13,121.84a20.49,20.49,0,0,1,15.9-9.91c30.44-80.91,120.39-128.4,208.27-106.83l4,1q1.65.4,3.27.84C2335.77,865.19,2336,864.66,2336.2,864.15Z"/><path class="cls-9" d="M2283.76,1367.42c-38.36-101.5,26.74-128.57,11.89-120"/><path class="cls-9" d="M2474,1367.42C2426,1263.81,2470.2,1246,2470.2,1246"/><path class="cls-9" d="M2225.62,1169.54s-71.34,27.18-72.19-17.83"/><path class="cls-10" d="M2343.66,853.62s-225.9,360.93-173.25,366"/><path class="cls-8" d="M2336.87,864.66s-57.82,15.39-101.06,138.43c0,0,13.59-.85,19.53,16.13l49.71-31.42S2335.7,916.69,2336.87,864.66Z"/><path class="cls-11" d="M2375.93,961.47h162.21a10.19,10.19,0,0,1,10.19,10.19v162.21a172.4,172.4,0,0,1-172.4,172.4h0a172.4,172.4,0,0,1-172.4-172.4v0A172.4,172.4,0,0,1,2375.93,961.47Z"/><path class="cls-12" d="M2213.73,1147.46c0-94.82,77.58-172.4,172.4-172.4h162.2v-3.4a10.22,10.22,0,0,0-10.19-10.19H2375.93c-94.81,0-172.39,77.58-172.39,172.4h0a171.47,171.47,0,0,0,39.68,109.72,171.07,171.07,0,0,1-29.49-96.13Z"/><path class="cls-13" d="M2538.14,961.47v158.81c0,94.82-77.58,172.4-172.4,172.4h0A172.24,172.24,0,0,1,2233,1230c31.06,45.93,83.61,76.27,142.91,76.27h0c94.82,0,172.4-77.58,172.4-172.4V971.66A10.22,10.22,0,0,0,2538.14,961.47Z"/><path class="cls-9" d="M2574.66,1183.62s-78.37-27.91-85.77,16.49"/><rect class="cls-14" x="2412.69" y="995.19" width="45.86" height="45.86" rx="12" ry="12" transform="translate(2632.46 -1614.38) rotate(71.59)"/><rect class="cls-14" x="2463.17" y="1017.77" width="45.86" height="45.86" rx="12" ry="12" transform="translate(2688.42 -1646.83) rotate(71.59)"/><rect class="cls-7" x="2448.43" y="1018.6" width="23.78" height="23.78" rx="5.8" ry="5.8" transform="matrix(0.32, 0.95, -0.95, 0.32, 2661.09, -1629.36)"/><path class="cls-15" d="M2289.31,1076.12h11.89a22.08,22.08,0,0,1,22.08,22.08v0a22.08,22.08,0,0,1-22.08,22.08h0a22.08,22.08,0,0,1-22.08-22.08v-11.89A10.19,10.19,0,0,1,2289.31,1076.12Z"/><path class="cls-15" d="M2412.45,1076.12h0a22.08,22.08,0,0,1,22.08,22.08v0a22.08,22.08,0,0,1-22.08,22.08h-11.89a10.19,10.19,0,0,1-10.19-10.19V1098.2a22.08,22.08,0,0,1,22.08-22.08Z" transform="translate(4824.9 2196.4) rotate(180)"/><path class="cls-7" d="M2301.2,1120.28a20.31,20.31,0,0,1-9.32-1.29,22.24,22.24,0,0,1-8-5.36,22.76,22.76,0,0,1-5.07-8.36c-.25-.79-.45-1.59-.65-2.39s-.29-1.63-.38-2.45-.11-1.67-.13-2.46l0-2.33.08-9.3a11.27,11.27,0,0,1,9.36-11c.42,0,.84-.11,1.27-.12s.86,0,1.24,0l2.33.12c3.1.21,6.2.41,9.3.74-3.1.33-6.2.53-9.3.74l-2.33.12c-.4,0-.72.08-1.08.11s-.69.14-1,.2a9.72,9.72,0,0,0-3.66,1.91,9.12,9.12,0,0,0-3.26,7.14l.08,9.3,0,2.33c0,.75.06,1.45.08,2.18s.21,1.43.3,2.15l.52,2.11a21.89,21.89,0,0,0,4.11,7.66A23.14,23.14,0,0,0,2301.2,1120.28Z"/><path class="cls-7" d="M2412.45,1120.28a23.14,23.14,0,0,0,15.59-8.21,21.89,21.89,0,0,0,4.11-7.66l.52-2.11c.1-.72.22-1.43.3-2.15s.07-1.43.08-2.18l0-2.33.08-9.3a9.14,9.14,0,0,0-3.25-7.14,9.69,9.69,0,0,0-3.67-1.91c-.34-.06-.68-.16-1-.2s-.68-.09-1.08-.11l-2.32-.12c-3.11-.21-6.21-.41-9.31-.74,3.1-.33,6.2-.53,9.31-.74l2.32-.12c.38,0,.83,0,1.24,0s.85.08,1.27.12a11.19,11.19,0,0,1,4.7,2,11.35,11.35,0,0,1,4.66,9l.08,9.3,0,2.33c0,.79-.08,1.64-.13,2.46s-.25,1.63-.37,2.45-.41,1.6-.66,2.39a22.62,22.62,0,0,1-5.07,8.36,22.29,22.29,0,0,1-8,5.36A20.37,20.37,0,0,1,2412.45,1120.28Z"/><path class="cls-7" d="M2389.1,1152.13a18.1,18.1,0,0,1,.51,9.71,22.18,22.18,0,0,1-4.46,9.27,23.93,23.93,0,0,1-8.4,6.57,24.78,24.78,0,0,1-21.17,0,23.94,23.94,0,0,1-8.41-6.57,22.3,22.3,0,0,1-4.46-9.27,18,18,0,0,1,.53-9.72,27.76,27.76,0,0,0,9.49,13.43,22.34,22.34,0,0,0,26.88,0A27.66,27.66,0,0,0,2389.1,1152.13Z"/><path class="cls-8" d="M2322.69,863.41l-1.53-.09c-120.25-6.53-153.35,86.67-168.79,120,23.07-4.88,28.2,10.88,28.2,17.36,0,.41,1,.66,1,.66,3.94-5.48,9.62-8.6,17-8.87,26.69-74.31,58.39-135.37,138.3-127.79q-6.55-.74-12.85-1.16Z"/><circle class="cls-7" cx="2301.2" cy="1098.2" r="12.74"/><circle class="cls-7" cx="2411.6" cy="1098.2" r="12.74"/><rect class="cls-7" x="1573.5" y="638.4" width="372.82" height="626.75" rx="186.41" ry="186.41"/><path class="cls-16" d="M1899.15,862.55c-.31,2.58-.81,5.1-1.25,7.71s-1.26,5.07-2,7.64c-.2.63-.35,1.29-.59,1.92l-.7,1.88-1.49,3.82a40.37,40.37,0,0,1-1.78,3.78l-2,3.8c-.79,1.24-1.61,2.48-2.44,3.73l-1.28,1.88c-.43.63-1,1.23-1.46,1.85-1,1.22-2.07,2.42-3.16,3.64s-2.5,2.3-3.8,3.44a38.27,38.27,0,0,1-4.38,3.19c-.78.5-1.57,1-2.37,1.49s-1.74.89-2.64,1.31l-2.72,1.24c-.9.42-1.93.69-2.91,1a42.15,42.15,0,0,1-6.16,1.61c-2.14.36-4.31.83-6.53,1l-3.38.31c-1.15.12-2.24.1-3.38.13s-2.29,0-3.45,0-2.23-.12-3.37-.21-2.26-.23-3.4-.38-2.14-.4-3.22-.63-2.15-.52-3.19-.84-2-.69-2.93-1.1c-.48-.2-1-.41-1.43-.64a12.68,12.68,0,0,1-1.38-.69c-.86-.48-1.7-1-2.52-1.56a26.16,26.16,0,0,1-4.39-3.71,28.25,28.25,0,0,1-3.42-4.31A35.26,35.26,0,0,1,1804.4,885a41.2,41.2,0,0,1,7.56-22.79,5.64,5.64,0,0,1,4.64-2.5h.81c9.55,0,16.08.41,21.57.69l12.17.79c.67,0,1.27.18,1.72.2a2.9,2.9,0,0,1,1.05.44,1,1,0,0,1,.29.39,1.2,1.2,0,0,1,.13.43,5.16,5.16,0,0,1,0,.61c0,.19-.06.38-.09.62l-.11.79c-.06.23-.12.47-.17.74s-.07.61-.12.84-.08.51-.1.77a10,10,0,0,0,0,1.45,3.41,3.41,0,0,0,.3,1.13c.57,1.28,2.23,2.25,5,2.58l2.19.14,2.47-.25c.43,0,.88,0,1.32-.14l1.36-.31,2.81-.67,2.91-1a30.32,30.32,0,0,0,3-1.11l3.05-1.32c1-.45,2.09-.89,3.11-1.43l3.13-1.59c1.06-.53,2.16-1,3.19-1.65,2.15-1.14,4.25-2.38,6.54-3.55l.17-.09a3.34,3.34,0,0,1,4.5,1.46A3.26,3.26,0,0,1,1899.15,862.55Z"/><path class="cls-16" d="M1722.93,859.26c2.29,1.17,4.39,2.41,6.54,3.55,1,.61,2.14,1.12,3.2,1.65l3.12,1.59c1,.54,2.09,1,3.11,1.43l3,1.32a30.32,30.32,0,0,0,3,1.11l2.91,1,2.81.67,1.36.31c.44.09.89.09,1.32.14l2.47.25,2.19-.14c2.74-.33,4.4-1.3,5-2.58a3.19,3.19,0,0,0,.3-1.13,10,10,0,0,0,0-1.45c0-.26-.06-.53-.1-.77s-.07-.58-.12-.84a6.75,6.75,0,0,0-.17-.74l-.11-.79c0-.24-.07-.43-.09-.62a5.16,5.16,0,0,1,0-.61,1.2,1.2,0,0,1,.13-.43,1,1,0,0,1,.29-.39,2.9,2.9,0,0,1,1-.44c.45,0,1-.21,1.72-.2l12.17-.79c5.49-.28,12-.73,21.57-.69h.77a5.72,5.72,0,0,1,4.68,2.5,41.2,41.2,0,0,1,7.56,22.79,35.26,35.26,0,0,1-5.67,19.93,28.25,28.25,0,0,1-3.42,4.31,26.16,26.16,0,0,1-4.39,3.71c-.82.55-1.66,1.08-2.52,1.56a13.48,13.48,0,0,1-1.37.69c-.48.23-1,.44-1.44.64-1,.41-1.95.77-2.93,1.1s-2.13.59-3.19.84-2.13.46-3.22.63-2.28.28-3.4.38-2.21.2-3.37.21-2.31,0-3.45,0-2.23,0-3.38-.13l-3.38-.31c-2.22-.16-4.39-.63-6.53-1a42.15,42.15,0,0,1-6.16-1.61c-1-.34-2-.61-2.91-1l-2.72-1.24c-.89-.42-1.77-.86-2.64-1.31s-1.59-1-2.36-1.49a37.54,37.54,0,0,1-4.39-3.19c-1.3-1.14-2.58-2.28-3.8-3.44s-2.15-2.42-3.16-3.64c-.49-.62-1-1.22-1.46-1.85l-1.28-1.88c-.83-1.25-1.65-2.49-2.43-3.73l-2-3.8a40.37,40.37,0,0,1-1.78-3.78l-1.49-3.82-.7-1.88c-.24-.63-.39-1.29-.59-1.92-.73-2.57-1.47-5.08-2-7.64s-.94-5.13-1.25-7.71a3.35,3.35,0,0,1,4.85-3.38Z"/><circle class="cls-17" cx="1736.56" cy="787.87" r="35.67"/><path class="cls-18" d="M1708.71,810.15s-1.16,1.4-3.26,3.79"/><path class="cls-19" d="M1698.86,821.23c-30.17,32.48-119.52,117.58-123.89-8.48"/><path class="cls-18" d="M1574.84,807.83c0-1.63,0-3.3,0-5"/><circle class="cls-20" cx="1743.77" cy="794.24" r="6.79"/><circle cx="1872.01" cy="794.24" r="6.79"/><path class="cls-11" d="M1764.49,1097a65.58,65.58,0,0,1-8.87,2.26,76.45,76.45,0,0,1-8.81,1c-2.91.12-5.78.1-8.63,0s-5.66-.44-8.44-.82a134.25,134.25,0,0,1-31.83-8.72,127.65,127.65,0,0,0,16.1,1.86,125,125,0,0,0,16-.13c2.62-.22,5.22-.52,7.78-.93s5.07-1,7.51-1.59a67.37,67.37,0,0,0,7.07-2.37,52.27,52.27,0,0,0,6.39-3.22,7,7,0,0,1,7.22,12.1,6.33,6.33,0,0,1-1.35.62Z"/><path class="cls-11" d="M1701.87,1082.64a53.33,53.33,0,0,0,6.33,3.85,70.73,70.73,0,0,0,7,3c2.43.85,4.93,1.6,7.47,2.25s5.13,1.15,7.74,1.58a123.92,123.92,0,0,0,15.95,1.5,128.77,128.77,0,0,0,16.18-.46,129.17,129.17,0,0,1-16.07,3,130.68,130.68,0,0,1-16.48,1c-2.77,0-5.56-.17-8.35-.41s-5.59-.65-8.39-1.17a79.1,79.1,0,0,1-8.37-2.15,63.84,63.84,0,0,1-8.18-3.38,5,5,0,1,1,4.48-9,4.45,4.45,0,0,1,.64.37Z"/><path class="cls-7" d="M2063.18,913.47c-2.81,1.62-5.61,3.18-8.42,4.65l-4.92,2.47c-1.66.76-3.29,1.55-4.94,2.26-3.3,1.42-6.55,2.78-9.85,3.86a91.76,91.76,0,0,1-19.19,4.54,62.07,62.07,0,0,1-17.48-.19,28.2,28.2,0,0,1-7.81-2.51,61.06,61.06,0,0,1-6.94-4.13,55.19,55.19,0,0,0-6.7-3.89,53.82,53.82,0,0,0-7.58-2.8c-5.5-1.62-11.65-3.34-18.75-5.17-3.54-.93-7.36-1.84-11.46-2.79-2.07-.45-4.19-.94-6.45-1.39-1.12-.24-2.28-.46-3.46-.69l-1.84-.32-.91-.17-1-.12-.65-.07a3.31,3.31,0,0,0-3.63,2.84q-.06.54-.15,1l-.11,1-.17,2c-.06,1.29-.09,2.58,0,3.82a53.33,53.33,0,0,0,.77,7.35,57.87,57.87,0,0,0,4.18,13.6,63.82,63.82,0,0,0,17,22.55,50.72,50.72,0,0,0,12.43,7.8,52.78,52.78,0,0,0,14.56,3.92,87.33,87.33,0,0,0,15.24.41c5-.26,10-.82,14.81-1.52a89.44,89.44,0,0,0,14-3.21,91.7,91.7,0,0,0,12.89-5.24,97.7,97.7,0,0,0,11.5-6.89,116,116,0,0,0,10.14-8,129.74,129.74,0,0,0,16.82-18.18q1.56-2,3-4.11A37.32,37.32,0,0,1,2063.18,913.47Z"/><path class="cls-8" d="M1732.36,1101.13a132.29,132.29,0,0,0-1.16-22,75.22,75.22,0,0,0-2.2-9.94,54,54,0,0,0-3.38-8.87,50.42,50.42,0,0,0-9.86-14,56.15,56.15,0,0,0-6.06-5.38,61.76,61.76,0,0,0-6.76-4.6,33.9,33.9,0,0,0-7.87-3.34c-2.84-.83-5.81-1.41-8.71-2.08a40.82,40.82,0,0,1-8.32-2.76,40.35,40.35,0,0,1-7.69-4.84,131.74,131.74,0,0,1-15.54-14.45c-2.68-2.88-5.4-6.13-8.2-9.69-1.39-1.82-2.81-3.68-4.24-5.73-.72-1-1.44-2.08-2.17-3.16l-1.1-1.72-.55-.86-.53-.92-.24-.42a4.39,4.39,0,0,1,1-5.53l.86-.74.84-.66,1.68-1.29c1.12-.79,2.25-1.55,3.37-2.23a64.22,64.22,0,0,1,6.78-3.58,66.52,66.52,0,0,1,13.64-4.43,68.59,68.59,0,0,1,27-.17,48.15,48.15,0,0,1,12.8,4.34,51.78,51.78,0,0,1,11.38,8,120,120,0,0,1,9.91,10.47c3.16,3.66,6.2,7.43,9.22,11.21a90,90,0,0,1,14.54,25.45,77.37,77.37,0,0,1,3.62,14.19,78.54,78.54,0,0,1,.83,14.2,79.68,79.68,0,0,1-5.38,25.95,93.08,93.08,0,0,1-11.85,21.53,3.14,3.14,0,0,1-4.39.66,3.09,3.09,0,0,1-1.27-2.57Z"/><path class="cls-21" d="M2137,886.38V919.5a27.69,27.69,0,0,1-27.6,27.61h0a27.69,27.69,0,0,1-27.6-27.61V886.38"/><ellipse class="cls-22" cx="2109.38" cy="886.38" rx="27.6" ry="7.22"/><path class="cls-22" d="M2082.66,932.5c-9.34,1-17.84-6.1-18.88-15.8h0c-1-9.69,5.75-18.45,15.09-19.45"/><rect class="cls-7" x="2064.79" y="913.98" width="5.94" height="11.04" rx="2.97" ry="2.97" transform="translate(-157.04 505.54) rotate(-13.43)"/><path class="cls-23" d="M1855,1347.1c38.35-134.85-26.75-170.82-11.89-159.36"/><path class="cls-23" d="M1664.79,1347.1c34.82-151-5.94-150-5.94-150"/><path class="cls-8" d="M1895.22,696.93a185.16,185.16,0,0,1,35,108.35v253.93c0,102.52-83.89,186.41-186.42,186.41h0a185.93,185.93,0,0,1-135.3-58.53c33.91,47.18,89.24,78.06,151.44,78.06h0c102.53,0,186.41-83.88,186.41-186.41V824.81A185.72,185.72,0,0,0,1895.22,696.93Z"/><path class="cls-24" d="M1747.17,1372.58V1096.23"/><path class="cls-25" d="M1409,1013.16s82.58-22.09,108.69,25.22c27.18,49.27-85.59,90.16-85.59,90.16"/><path class="cls-25" d="M1127.33,1028.43c-17.18-11.21-42.3-13.52-57.65,2.55-4.68,5-7.08,11.41-8.94,18.48-6,32.61,3.73,64.26,12.83,94.53"/><path class="cls-25" d="M1243.7,1260.65c-17.18-11.21-42.3-13.52-57.65,2.55-4.68,5-7.08,11.41-8.94,18.48-6,32.61,3.73,64.27,12.83,94.53"/><path class="cls-25" d="M1308.11,1260.65c17.19-11.21,42.31-13.52,57.66,2.55,4.68,5,7.08,11.41,8.94,18.48,6,32.61-3.73,64.27-12.83,94.53"/><path class="cls-26" d="M1215,745.26h134.27A108.7,108.7,0,0,1,1458,854v272.52a175.84,175.84,0,0,1-175.84,175.84h0a175.84,175.84,0,0,1-175.84-175.84V854A108.7,108.7,0,0,1,1215,745.26Z"/><path class="cls-27" d="M1408.64,761.06c17.68,17.2,28.5,40.05,28.5,65v304.13c0,86-79.13,156.31-175.84,156.31h0a189.66,189.66,0,0,1-103-29.87c31.84,28.17,75.67,45.65,123.87,45.65h0c96.71,0,175.84-70.34,175.84-156.31V841.89C1458,808.18,1438.29,778.37,1408.64,761.06Z"/><path class="cls-28" d="M1127.13,1161V856.82c0-53.15,48.91-96.63,108.7-96.63H1370.1A117.68,117.68,0,0,1,1429.47,776c-19.91-19.38-48.53-31.59-80.2-31.59H1215c-59.79,0-108.7,43.48-108.7,96.63v304.13c0,51.82,28.76,98,72.79,126.44C1147,1243.25,1127.13,1204.07,1127.13,1161Z"/><path class="cls-15" d="M1223.86,883.93h0a22.76,22.76,0,0,1,22.76,22.76v43.77a10.19,10.19,0,0,1-10.19,10.19h-25.15a10.19,10.19,0,0,1-10.19-10.19V906.69a22.76,22.76,0,0,1,22.76-22.76Z"/><path class="cls-15" d="M1348.8,883.93h0a22.76,22.76,0,0,1,22.76,22.76v43.77a10.19,10.19,0,0,1-10.19,10.19h-25.15A10.19,10.19,0,0,1,1326,950.46V906.69a22.76,22.76,0,0,1,22.76-22.76Z"/><path d="M1241.68,946.08a10.45,10.45,0,1,1-20.9,0c0-5.77,4.68-6.22,10.45-6.22S1241.68,940.31,1241.68,946.08Z"/><polygon class="cls-16" points="1523.67 1082.73 1470.77 1082.73 1444.32 1128.54 1470.77 1174.35 1523.67 1174.35 1550.12 1128.54 1523.67 1082.73"/><polygon class="cls-29" points="1523.67 1082.73 1470.77 1082.73 1444.32 1128.54 1497.22 1142.37 1550.12 1128.54 1523.67 1082.73"/><path class="cls-25" d="M1486.64,1013.32c19.6,6.06,37.44,23.89,34.89,46-.85,6.8-4.25,12.74-8.49,18.69-21.24,25.47-51.81,38.21-80.9,50.56"/><path d="M1367.77,946.08a10.45,10.45,0,0,1-20.9,0c0-5.77,4.68-6.22,10.45-6.22S1367.77,940.31,1367.77,946.08Z"/><path class="cls-30" d="M1243.7,918.94h-10.51a18,18,0,0,0-15.62,9l-5.25,9.09a18,18,0,0,0,0,18l5.25,9.1a18,18,0,0,0,15.62,9h10.51a18,18,0,0,0,15.62-9l5.25-9.1a18,18,0,0,0,0-18l-5.25-9.09A18,18,0,0,0,1243.7,918.94Z"/><path class="cls-30" d="M1353.7,918.94h-10.5a18,18,0,0,0-15.63,9l-5.25,9.09a18.05,18.05,0,0,0,0,18l5.25,9.1a18.06,18.06,0,0,0,15.63,9h10.5a18,18,0,0,0,15.63-9l5.25-9.1a18.05,18.05,0,0,0,0-18l-5.25-9.09A18,18,0,0,0,1353.7,918.94Z"/><path class="cls-11" d="M1243.7,918.94a18,18,0,0,1,15.62,9l5.25,9.09a18,18,0,0,1,0,18l-5.25,9.1a18,18,0,0,1-15.62,9h-10.51a18,18,0,0,1-15.62-9l-5.25-9.1a18,18,0,0,1,0-18l5.25-9.09a18,18,0,0,1,15.62-9h10.51m0-14h-10.51a32.13,32.13,0,0,0-27.75,16l-5.25,9.09a32.15,32.15,0,0,0,0,32l5.25,9.1a32.14,32.14,0,0,0,27.75,16h10.51a32.14,32.14,0,0,0,27.75-16l5.25-9.1a32.15,32.15,0,0,0,0-32l-5.25-9.1a32.14,32.14,0,0,0-27.75-16Z"/><path class="cls-11" d="M1353.7,918.94a18,18,0,0,1,15.63,9l5.25,9.09a18.05,18.05,0,0,1,0,18l-5.25,9.1a18,18,0,0,1-15.63,9h-10.5a18.06,18.06,0,0,1-15.63-9l-5.25-9.1a18.05,18.05,0,0,1,0-18l5.25-9.09a18,18,0,0,1,15.63-9h10.5m0-14h-10.5a32.12,32.12,0,0,0-27.75,16l-5.25,9.09a32.11,32.11,0,0,0,0,32l5.25,9.1a32.13,32.13,0,0,0,27.75,16h10.5a32.13,32.13,0,0,0,27.75-16l5.26-9.1a32.15,32.15,0,0,0,0-32l-5.26-9.09a32.12,32.12,0,0,0-27.75-16Z"/><line class="cls-24" x1="1275.3" y1="946.08" x2="1310.37" y2="946.08"/><path class="cls-31" d="M1091.6,725.64h400.89A49.33,49.33,0,0,1,1541.82,775v0a10.19,10.19,0,0,1-10.19,10.19H1052.46A10.19,10.19,0,0,1,1042.27,775v0A49.33,49.33,0,0,1,1091.6,725.64Z"/><rect class="cls-7" x="1122.72" y="649.09" width="327.86" height="142.68" rx="12" ry="12"/><rect class="cls-11" x="1119.26" y="738.6" width="335.56" height="53.16" rx="12" ry="12"/><path class="cls-7" d="M1492.79,823.26H1092.88a50.76,50.76,0,0,1-50.61-50.62h0c0-27.84,18.41,0,46.25,0h399.9c27.84,0,55-27.84,55,0h0A50.76,50.76,0,0,1,1492.79,823.26Z"/><path class="cls-16" d="M1482,1070.71a52.52,52.52,0,0,1,12.14-8.43c1.09-.59,2.25-1,3.39-1.56s2.34-.92,3.56-1.24a34.61,34.61,0,0,1,7.47-1.42,28.06,28.06,0,0,1,15.05,3.31,36.42,36.42,0,0,1,11.45,10.34c.39.51.81,1,1.17,1.53l1,1.6,1,1.6a15.14,15.14,0,0,1,1,1.63c1.21,2.21,2.5,4.42,3.49,6.73.5,1.15,1.05,2.29,1.52,3.46s.85,2.36,1.25,3.55.85,2.36,1.13,3.58l.91,3.63c.62,2.41,1,4.86,1.42,7.31l.56,3.68q.21,1.85.36,3.69a103.11,103.11,0,0,1,.42,14.81.3.3,0,0,1-.31.29.31.31,0,0,1-.28-.21h0c-1.54-4.72-2.63-9.46-4-14.12-.32-1.17-.63-2.34-.92-3.51l-1-3.47c-.68-2.31-1.27-4.64-2.05-6.89s-1.35-4.58-2.16-6.8c-.39-1.12-.74-2.26-1.1-3.38s-.82-2.21-1.23-3.32a56.28,56.28,0,0,0-6.16-12.58,32.17,32.17,0,0,0-9.56-9.7,24.59,24.59,0,0,0-12.94-3.75,31.65,31.65,0,0,0-7,.77c-1.16.2-2.29.59-3.44.9s-2.26.75-3.36,1.23a51.63,51.63,0,0,0-6.46,3.19,50.6,50.6,0,0,0-6,4h0a.3.3,0,0,1-.39-.45Z"/><path class="cls-32" d="M1315.3,997.82a10.23,10.23,0,0,1-10.19,10.19h-24.55a10.23,10.23,0,0,1-10.19-10.19"/></g></svg>