<svg xmlns="http://www.w3.org/2000/svg" xmlns:xlink="http://www.w3.org/1999/xlink" viewBox="0 0 1440.8 1501.84"><defs><style>.cls-1,.cls-2,.cls-8{fill:none;}.cls-2{stroke:#ffd166;stroke-width:60px;}.cls-2,.cls-8{stroke-linecap:round;stroke-miterlimit:10;}.cls-3{fill:#ffd166;}.cls-4{fill:#f9c45a;}.cls-5{fill:#ffdc97;}.cls-6{fill:#fff;}.cls-7{fill:#2e86ab;}.cls-8{stroke:#2e86ab;stroke-width:12px;}.cls-9{fill:#429cbc;}.cls-10{fill:#ef476f;}.cls-11{fill:#f96b94;}.cls-12{fill:#3f9bba;}.cls-13{fill:#57a8c3;}.cls-14{clip-path:url(#clip-path);}.cls-15{fill:#49a6bf;}</style><clipPath id="clip-path"><path class="cls-1" d="M877.61,1233.66c-3.05-9.43-8.9-18.54-17.92-23.3l-9.32-3.93a39.18,39.18,0,0,0-12.07-1.34,81.33,81.33,0,0,0,8-10c6.42-9.19,9.36-20.37,9.89-31.45,1-20.43-9.3-38.71-22.2-53.64-10.11-11.7-23.86-21.54-37.93-28-17.3-7.87-36.12-14.06-55.45-12.7-13.67,1-25.6,3.8-37.74,10.32-10.67,5.74-17.89,13.71-25,22.78.93-1.2,1.85-2.4,2.78-3.59a81.19,81.19,0,0,1-11.2,11.5,183.66,183.66,0,0,1-31.51,17.37c-31.38,12.64-64.7,20.85-98,26.58-2.74.48-5.49.94-8.25,1.34-9,1.28-19,10.49-23.31,17.92-4.89,8.36-7,20.68-3.93,30s8.9,18.54,17.92,23.31l9.32,3.93a39.2,39.2,0,0,0,20.73,0c16.16-2.32,32.22-5.78,48.06-9.66,32.79-8.05,66-18.78,95.53-35.43a191.43,191.43,0,0,0,26.68-18.67A100.94,100.94,0,0,0,738,1151a44.19,44.19,0,0,1,3-3.37h0c.55-.16,1.11-.3,1.66-.44,1.73,0,3.47,0,5.2.07a86.52,86.52,0,0,1,11,3.12,98.37,98.37,0,0,1,12.48,7.28c.49.42,1,.84,1.45,1.28a74.24,74.24,0,0,0-15.5,20.11c-10.39,20.66-10.93,42.6-.15,63.25,7.11,13.63,20.54,25.19,34.42,31.49,7.83,3.55,15.23,6.56,23.67,7.89,13.22,2.07,21.89,1.77,35.14-.07,9-1.24,19-10.53,23.31-17.92C878.57,1255.36,880.64,1243,877.61,1233.66Z"/></clipPath></defs><title>thing2</title><g id="Layer_6" data-name="Layer 6"><path class="cls-2" d="M629.16,1004.55C584,885,660.65,853.16,643.16,863.32"/><path class="cls-2" d="M853.16,1004.55c-56.46-122-4.46-143-4.46-143"/><path class="cls-2" d="M560.7,771.55s-84,32-85-21"/><path class="cls-3" d="M737.7,526.55h191a12,12,0,0,1,12,12v191a203,203,0,0,1-203,203h0a203,203,0,0,1-203-203v0a203,203,0,0,1,203-203Z"/><path class="cls-4" d="M546.7,745.55c0-111.65,91.35-203,203-203h191v-4a12,12,0,0,0-12-12h-191c-111.65,0-203,91.35-203,203h0a201.89,201.89,0,0,0,46.72,129.19A201.5,201.5,0,0,1,546.7,745.55Z"/><path class="cls-5" d="M928.7,526.55v187c0,111.65-91.35,203-203,203h0c-62.69,0-119-28.79-156.28-73.81,36.57,54.08,98.45,89.81,168.28,89.81h0c111.65,0,203-91.35,203-203v-191A12,12,0,0,0,928.7,526.55Z"/><path class="cls-2" d="M971.7,788.13s-92.29-32.87-101,19.42"/><path class="cls-6" d="M635.7,661.55h14a26,26,0,0,1,26,26v0a26,26,0,0,1-26,26h0a26,26,0,0,1-26-26v-14a12,12,0,0,1,12-12Z"/><path class="cls-6" d="M780.7,661.55h0a26,26,0,0,1,26,26v0a26,26,0,0,1-26,26h-14a12,12,0,0,1-12-12v-14A26,26,0,0,1,780.7,661.55Z" transform="translate(1561.39 1375.1) rotate(180)"/><path class="cls-7" d="M649.7,713.55a24.2,24.2,0,0,1-10.93-1.64,26.07,26.07,0,0,1-9.32-6.34,26.47,26.47,0,0,1-5.89-9.77c-.28-.92-.52-1.86-.76-2.79s-.32-1.9-.44-2.86-.12-1.94-.14-2.88l0-2.73.08-11a13.11,13.11,0,0,1,10.8-12.75c.49-.05,1-.12,1.47-.14s1,0,1.45,0l2.74.12c3.65.21,7.31.41,11,.74-3.65.33-7.31.53-11,.74l-2.74.12c-.46,0-.85.08-1.28.11s-.83.16-1.24.24a11.37,11.37,0,0,0-4.4,2.25,10.93,10.93,0,0,0-4,8.57l.08,11,0,2.73c0,.9.07,1.73.1,2.6s.24,1.71.36,2.56l.62,2.51a25.85,25.85,0,0,0,4.93,9.08A27.09,27.09,0,0,0,649.7,713.55Z"/><path class="cls-7" d="M780.7,713.55A27.07,27.07,0,0,0,799.2,704a25.85,25.85,0,0,0,4.93-9.08l.63-2.51c.11-.85.26-1.7.35-2.56s.09-1.7.11-2.6l0-2.73.08-11a11,11,0,0,0-4-8.57,11.48,11.48,0,0,0-4.41-2.25c-.41-.08-.82-.18-1.23-.24s-.82-.1-1.29-.11l-2.74-.12c-3.65-.21-7.3-.41-10.95-.74,3.65-.33,7.3-.53,10.95-.74l2.74-.12c.44,0,1,0,1.45,0s1,.09,1.47.14a13,13,0,0,1,5.44,2.33,13.19,13.19,0,0,1,5.37,10.42l.08,11,0,2.73c0,.94-.1,1.92-.15,2.88s-.29,1.91-.44,2.86-.47,1.87-.76,2.79a26.47,26.47,0,0,1-5.89,9.77,26.07,26.07,0,0,1-9.32,6.34A24.16,24.16,0,0,1,780.7,713.55Z"/><path class="cls-7" d="M753.2,751.05a21.82,21.82,0,0,1,.2,11.27,26.23,26.23,0,0,1-5.34,10.59,27.91,27.91,0,0,1-9.72,7.45c-1,.41-1.92.82-2.9,1.16s-2,.6-3,.85-2.06.35-3.1.49l-3.12.19-3.13-.18c-1-.14-2.07-.32-3.1-.5s-2-.56-3-.84-2-.75-2.9-1.16a27.83,27.83,0,0,1-9.73-7.45,26.21,26.21,0,0,1-5.34-10.6,21.81,21.81,0,0,1,.22-11.27,31.89,31.89,0,0,0,10.68,16.31,26.27,26.27,0,0,0,32.64,0A31.79,31.79,0,0,0,753.2,751.05Z"/><circle class="cls-7" cx="649.7" cy="687.55" r="15"/><circle class="cls-7" cx="779.7" cy="687.55" r="15"/><path class="cls-7" d="M1249.22,759.58l-3-3.78q-4.85-6.15-10-11.83l-.73.58q-4.32-6.37-9.17-12.51l-3-3.77c-70.1-88.61-198.48-106.74-286.18-40.79A24.2,24.2,0,0,1,960.87,691c10.49,8.16,12.59,23,4.68,33.2-.3.38-.61.74-.93,1.09l.42.53a24.15,24.15,0,0,1,24.05,3.39c10.45,8.12,12.57,22.89,4.78,33.06l.28.36a24.22,24.22,0,0,1,22.22,4c9.91,7.71,12.28,21.37,5.85,31.44l.51.64a24.3,24.3,0,0,1,20,4.65,23.89,23.89,0,0,1,7,29.43,24.31,24.31,0,0,1,19.76,4.72,24.56,24.56,0,0,1,5,5.19c5.93,2.17,11.52,5.59,15,10,1.18,1.49,2.25,3,3.24,4.49a43.17,43.17,0,0,1,6.72,16.93,24.56,24.56,0,0,1,7.76,9.62,24.31,24.31,0,0,1,0,20.32,23.89,23.89,0,0,1,27,13.69,24.3,24.3,0,0,1-.12,20.5l.51.65c11.28-3.91,24,1.57,29.21,13a24.19,24.19,0,0,1-1.23,22.54l.28.37c11.71-5.22,25.57.27,31,12.33a24.18,24.18,0,0,1-2.3,24.18l.41.53c.42-.23.84-.45,1.28-.65,11.74-5.33,25.71.17,31.2,12.27a24.19,24.19,0,0,1-2.08,23.89C1306.9,977.43,1319.11,848.36,1249.22,759.58Z"/><path class="cls-8" d="M1250.27,735.31S838.4,1021.21,893,1051.14"/><path class="cls-9" d="M1235.47,744.56c-2.88-4.25-5.92-8.43-9.16-12.52l-3-3.77c-70.1-88.61-198.48-106.74-286.18-40.79a24.16,24.16,0,0,1,21.94,2.28c86.78-53.21,204.71-32.34,270.82,51.22l3,3.77.89,1.15Z"/><path class="cls-9" d="M1234.58,745.26c-2.8-2.67-5.6-5.28-8.4-7.78l-1.17-1-1.35-1.19C1116.6,642.26,1018.47,705,980,724.78c25,12.13,18.36,30.5,13.67,36.52-.29.39.45,1.34.45,1.34,7.62-2.25,15.16-1,22.22,4,77.46-49.12,150.15-82.71,218.16-21.38Z"/><path class="cls-9" d="M1236.2,744q5.21,5.68,10,11.82l3,3.78c69.89,88.78,57.68,217.85-26.86,287.82a24.11,24.11,0,0,0,2.88-21.87c71.93-72,79-191.58,13.15-275.31l-3-3.77-.9-1.13Z"/><path class="cls-9" d="M1235.31,744.68c2,3.35,3.84,6.68,5.62,10,.25.46.5.92.74,1.38s.55,1.06.84,1.59c65.55,125.75-18.26,206.61-46.45,239.39-6-27.11-25.41-24.94-32.35-21.79-.44.2-1.19-.75-1.19-.75,4-6.89,4.53-14.5,1.23-22.54,65.78-63.92,115.35-126.81,71.51-207.21Z"/><path class="cls-9" d="M1235.26,744.73s-31.84-12.85-165.76,92.83c0,0,15.12,10.06,6.9,32.53Z"/><path class="cls-9" d="M1235.26,744.73s5.83,33.37-128.09,139c0,0-6.61-17.58-30.77-13.69Z"/><rect class="cls-10" x="491.69" y="714.28" width="54" height="54" rx="12" ry="12" transform="translate(1012.82 1499.16) rotate(-178.12)"/><rect class="cls-10" x="446.14" y="760.82" width="54" height="54" rx="12" ry="12" transform="translate(920.22 1590.71) rotate(-178.12)"/><rect class="cls-7" x="480.95" y="749.52" width="28" height="28" rx="5.8" ry="5.8" transform="translate(964.62 1542.84) rotate(-178.12)"/><ellipse class="cls-3" cx="475.7" cy="745.9" rx="24.83" ry="18.48" transform="translate(-332.6 386.3) rotate(-33.49)"/><ellipse class="cls-11" cx="414.62" cy="1027.03" rx="19.82" ry="39.51" transform="translate(-668.24 1259.66) rotate(-80.14)"/><ellipse class="cls-10" cx="468.39" cy="1009.55" rx="19.82" ry="39.51" transform="translate(-606.45 1298.15) rotate(-80.14)"/><ellipse class="cls-10" cx="459.34" cy="1061.64" rx="19.82" ry="39.51" transform="translate(-665.28 1332.4) rotate(-80.14)"/><ellipse class="cls-11" cx="515.42" cy="1044.55" rx="19.82" ry="39.51" transform="translate(-601.97 1373.49) rotate(-80.14)"/><ellipse class="cls-12" cx="464.12" cy="1034.13" rx="14.35" ry="25.54" transform="translate(-634.21 1314.31) rotate(-80.14)"/><ellipse class="cls-7" cx="463.87" cy="1035.59" rx="12.86" ry="25.54" transform="translate(-635.86 1315.27) rotate(-80.14)"/><path class="cls-13" d="M529.52,1196.21l-1.93-.17c.41-.19.82-.41,1.23-.61a12.31,12.31,0,0,0-3.53.14c-5.55,1.31-10.31,3.55-15.76,4.94-8.25,2.1-16.64,2.43-24.64,4.94-.79.19-1.32.72-1.16,1.22s.86.75,1.65.59c12.32-2.11,24.88-3.89,37-2.45a18.91,18.91,0,0,0,3.55.58c4.07-.19,7.66-2.53,8-5.23s-2.65-4.74-6.72-4.56Z"/><path class="cls-13" d="M527.41,1184.4l-1.92-.17c.4-.2.81-.42,1.22-.61a12.62,12.62,0,0,0-3.52.13c-5.56,1.32-10.32,3.56-15.76,5-8.25,2.09-16.65,2.43-24.64,4.94-.79.19-1.32.72-1.16,1.22s.85.75,1.64.58c12.33-2.1,24.88-3.89,37.05-2.44a19,19,0,0,0,3.54.57c4.07-.18,7.66-2.52,8-5.22s-2.65-4.75-6.72-4.56Z"/><path class="cls-13" d="M525.3,1172.58c-.64,0-1.28-.12-1.92-.16l1.23-.62a13.07,13.07,0,0,0-3.53.14c-5.55,1.31-10.31,3.56-15.76,4.94-8.25,2.1-16.64,2.43-24.64,4.95-.79.19-1.32.72-1.16,1.22s.86.74,1.64.58c12.33-2.11,24.89-3.89,37.05-2.44a19.83,19.83,0,0,0,3.55.57c4.07-.18,7.66-2.53,8-5.23s-2.65-4.74-6.71-4.56Z"/><path class="cls-13" d="M523.2,1160.77l-1.92-.17c.4-.19.81-.41,1.22-.61a12.7,12.7,0,0,0-3.53.13c-5.55,1.32-10.31,3.56-15.75,5-8.25,2.1-16.65,2.43-24.65,4.94-.79.19-1.31.72-1.15,1.22s.85.75,1.64.58c12.33-2.1,24.88-3.89,37.05-2.44a18.8,18.8,0,0,0,3.54.58c4.07-.19,7.66-2.53,8-5.23S525,1160,521,1160.16Z"/><path class="cls-13" d="M533.88,1220.06l-1.92-.17,1.23-.61a12.67,12.67,0,0,0-3.53.13c-5.56,1.32-10.31,3.56-15.76,4.95-8.25,2.1-16.65,2.43-24.64,4.94-.79.19-1.32.72-1.16,1.22s.86.75,1.64.58c12.33-2.1,24.89-3.88,37-2.44a18.91,18.91,0,0,0,3.55.58c4.06-.19,7.65-2.53,8-5.23s-2.65-4.74-6.71-4.56Z"/><path class="cls-13" d="M531.78,1208.25l-1.93-.17c.41-.2.82-.42,1.23-.61a12.67,12.67,0,0,0-3.53.13c-5.55,1.32-10.31,3.56-15.76,5-8.24,2.09-16.64,2.42-24.64,4.94-.79.19-1.32.72-1.15,1.22s.85.74,1.64.58c12.33-2.1,24.88-3.89,37-2.44a19.11,19.11,0,0,0,3.55.57c4.07-.18,7.66-2.52,8-5.22s-2.65-4.75-6.72-4.56Z"/><path class="cls-13" d="M529.67,1196.43c-.64,0-1.28-.12-1.92-.17l1.22-.61a12.62,12.62,0,0,0-3.52.14c-5.56,1.31-10.31,3.56-15.76,4.94-8.25,2.1-16.65,2.43-24.64,5-.79.18-1.32.71-1.16,1.21s.86.75,1.64.59c12.33-2.11,24.88-3.89,37.05-2.44a19.83,19.83,0,0,0,3.55.57c4.06-.19,7.65-2.53,8-5.23s-2.65-4.74-6.72-4.56Z"/><path class="cls-13" d="M527.56,1184.62l-1.92-.17c.41-.2.82-.42,1.23-.61a12.67,12.67,0,0,0-3.53.13c-5.55,1.32-10.31,3.56-15.76,5-8.25,2.1-16.64,2.43-24.64,4.94-.79.19-1.32.72-1.16,1.22s.86.75,1.65.58c12.32-2.1,24.88-3.89,37-2.44a18.18,18.18,0,0,0,3.55.57c4.07-.18,7.66-2.52,8-5.22s-2.65-4.74-6.72-4.56Z"/><path class="cls-13" d="M854.25,1242.72l1.88.44c-.43.13-.87.29-1.3.43a12.47,12.47,0,0,0,3.51.36c5.68-.51,10.71-2.06,16.3-2.66,8.46-.91,16.82,0,25.09-1.41.81-.08,1.41-.53,1.32-1s-.74-.86-1.55-.81c-12.5.34-25.18.33-37-2.83a18.65,18.65,0,0,0-3.43-1.06c-4-.4-7.93,1.41-8.67,4s2,5.08,6,5.47Z"/><path class="cls-13" d="M854.66,1254.71l1.88.44-1.3.43a12.52,12.52,0,0,0,3.51.37c5.68-.52,10.71-2.07,16.3-2.67,8.46-.91,16.82,0,25.09-1.41.81-.07,1.41-.52,1.32-1s-.74-.86-1.54-.81c-12.5.34-25.18.33-37-2.82a18.85,18.85,0,0,0-3.43-1.07c-4.05-.39-7.94,1.42-8.68,4s2,5.07,6,5.46Z"/><path class="cls-13" d="M855.07,1266.7l1.88.44c-.43.14-.86.3-1.3.43a12.52,12.52,0,0,0,3.51.37c5.69-.52,10.71-2.06,16.3-2.67,8.47-.91,16.83,0,25.1-1.41.81-.07,1.4-.52,1.31-1s-.74-.86-1.54-.81c-12.5.34-25.18.33-37-2.82a19.4,19.4,0,0,0-3.43-1.07c-4-.39-7.94,1.42-8.67,4s1.95,5.07,6,5.46Z"/><path class="cls-13" d="M855.49,1278.7c.63.13,1.25.3,1.88.43l-1.3.44a12.85,12.85,0,0,0,3.51.36c5.68-.52,10.71-2.06,16.3-2.66,8.46-.91,16.82,0,25.09-1.41.81-.08,1.41-.53,1.32-1s-.74-.86-1.54-.81c-12.51.33-25.19.33-37-2.83a19.53,19.53,0,0,0-3.44-1.07c-4-.39-7.93,1.42-8.67,4s2,5.07,6,5.47Z"/><path class="cls-13" d="M853.3,1218.49l1.88.44-1.3.43a12.48,12.48,0,0,0,3.51.37c5.68-.52,10.71-2.07,16.3-2.67,8.46-.91,16.82,0,25.09-1.41.81-.07,1.41-.52,1.32-1s-.74-.86-1.55-.81c-12.5.34-25.18.33-37-2.82a19,19,0,0,0-3.44-1.07c-4.05-.39-7.93,1.42-8.67,4s2,5.07,6,5.46Z"/><path class="cls-13" d="M853.71,1230.48l1.88.44c-.43.14-.87.3-1.3.43a12.52,12.52,0,0,0,3.51.37c5.68-.52,10.71-2.06,16.3-2.67,8.46-.91,16.82,0,25.09-1.4.81-.08,1.41-.53,1.32-1.05s-.74-.86-1.54-.81c-12.5.34-25.18.33-37-2.82a19.67,19.67,0,0,0-3.43-1.07c-4-.39-7.94,1.42-8.68,4s2,5.07,6,5.46Z"/><path class="cls-13" d="M854.12,1242.48c.63.13,1.26.3,1.88.44-.43.13-.86.29-1.3.43a12.54,12.54,0,0,0,3.52.36c5.68-.52,10.7-2.06,16.29-2.66,8.47-.91,16.83,0,25.1-1.41.81-.08,1.4-.53,1.31-1s-.74-.86-1.54-.81c-12.5.34-25.18.33-37-2.83a19.4,19.4,0,0,0-3.43-1.07c-4-.39-7.94,1.42-8.67,4s2,5.07,6,5.47Z"/><path class="cls-13" d="M854.54,1254.47l1.88.44c-.43.13-.87.29-1.3.43a12.86,12.86,0,0,0,3.51.37c5.68-.52,10.71-2.07,16.3-2.67,8.46-.91,16.82,0,25.09-1.41.81-.07,1.41-.52,1.32-1s-.74-.86-1.54-.81c-12.51.34-25.19.33-37-2.82a18.85,18.85,0,0,0-3.43-1.07c-4.06-.4-7.94,1.42-8.68,4s2,5.07,6,5.46Z"/><path class="cls-12" d="M552.41,1230.56c16.16-2.31,32.22-5.77,48.06-9.66,32.79-8,66-18.78,95.53-35.43a192.21,192.21,0,0,0,26.68-18.66c8.26-6.73,14.43-14.6,20.81-23.15l-6.1,7.89a44,44,0,0,1,7.65-7.66l-7.89,6.09a42.66,42.66,0,0,1,8.14-4.73l-9.32,3.93a47,47,0,0,1,11.52-3.16l-10.37,1.39a61.79,61.79,0,0,1,16,.11l-10.37-1.4a86.1,86.1,0,0,1,20.66,5.77l-9.31-3.93a99.06,99.06,0,0,1,21.09,12.22l-7.89-6.1a78.4,78.4,0,0,1,13.66,13.34l-6.1-7.89a50,50,0,0,1,6.32,10.56l-3.93-9.32a33.33,33.33,0,0,1,2.22,8L778,1158.41a26.46,26.46,0,0,1,0,5.9l1.39-10.37a24,24,0,0,1-1.51,5.7l3.94-9.32a26.5,26.5,0,0,1-3.2,5.4l6.1-7.9c-2.88,3.58-6.6,6-10,9.06-6.89,6.09-13.36,13.75-17.49,21.95-10.39,20.66-10.93,42.61-.15,63.25,7.11,13.63,20.54,25.2,34.42,31.49,7.83,3.55,15.23,6.57,23.67,7.89,13.22,2.07,21.89,1.77,35.14-.07,9-1.24,19-10.53,23.31-17.92,4.89-8.36,7-20.68,3.93-30s-8.9-18.54-17.92-23.31l-9.32-3.93a39.2,39.2,0,0,0-20.73,0l-1.25.17,10.37-1.39a56.54,56.54,0,0,1-12.54,0l10.37,1.39a59.92,59.92,0,0,1-14.42-3.8l9.32,3.93a53.39,53.39,0,0,1-11.35-6.54l7.9,6.1a42.33,42.33,0,0,1-7.09-7.13l6.1,7.89a33.44,33.44,0,0,1-3.67-6.45l3.93,9.31a29.28,29.28,0,0,1-1.62-6l1.39,10.37a28.8,28.8,0,0,1,0-6.43l-1.39,10.36a32,32,0,0,1,1.82-6.72l-3.93,9.32a42.25,42.25,0,0,1,4.69-8.11l-6.09,7.9a73.46,73.46,0,0,1,12.42-12.06c4.67-3.75,8.23-8.52,11.67-13.44,6.42-9.19,9.36-20.36,9.89-31.45,1-20.43-9.3-38.71-22.2-53.63-10.11-11.71-23.86-21.55-37.93-28-17.3-7.87-36.12-14.06-55.45-12.7-13.67,1-25.6,3.8-37.74,10.33-12.33,6.63-20.05,16.23-28.33,27.07l6.1-7.89A85.77,85.77,0,0,1,666,1112.87l7.89-6.1c-12.21,9.43-26.06,16.49-40.21,22.52l9.31-3.93c-32.85,13.82-68,22.61-103.05,28.66-2.74.47-5.49.93-8.25,1.33-9,1.29-19,10.49-23.31,17.92-4.89,8.36-7,20.68-3.93,30s8.9,18.55,17.92,23.31l9.32,3.93a39.2,39.2,0,0,0,20.73,0Z"/><g class="cls-14"><ellipse class="cls-15" cx="545.66" cy="1193.91" rx="11.55" ry="45.53" transform="translate(-180.08 100.08) rotate(-9)"/><ellipse class="cls-15" cx="580.41" cy="1188.4" rx="11.55" ry="45.53" transform="translate(-178.79 105.45) rotate(-9)"/><ellipse class="cls-15" cx="615.75" cy="1178.89" rx="11.55" ry="45.53" transform="translate(-176.86 110.86) rotate(-9)"/><ellipse class="cls-15" cx="661.28" cy="1159.18" rx="11.55" ry="45.53" transform="translate(-173.22 117.74) rotate(-9)"/><ellipse class="cls-15" cx="696.64" cy="1134.27" rx="11.55" ry="50.15" transform="translate(-87.3 58.49) rotate(-4.52)"/><ellipse class="cls-15" cx="735.74" cy="1109.18" rx="11.55" ry="50.15" transform="translate(-164.48 128.77) rotate(-9)"/><ellipse class="cls-15" cx="772.77" cy="1111.37" rx="50.15" ry="11.55" transform="translate(-523.55 1501.1) rotate(-71.92)"/><ellipse class="cls-15" cx="815.22" cy="1130.08" rx="50.15" ry="11.55" transform="translate(-485.5 630.28) rotate(-33.17)"/><ellipse class="cls-15" cx="815.22" cy="1241.81" rx="50.15" ry="11.55" transform="translate(-624.71 876.75) rotate(-42.49)"/><ellipse class="cls-15" cx="849.73" cy="1256.81" rx="50.15" ry="11.55" transform="translate(-665.93 1190.69) rotate(-53.44)"/><ellipse class="cls-15" cx="807.22" cy="1174.95" rx="53.46" ry="8.76" transform="translate(-90.17 67.34) rotate(-4.52)"/><ellipse class="cls-15" cx="791.82" cy="1213.69" rx="53.46" ry="8.76" transform="translate(-277.16 235.27) rotate(-14.41)"/></g></g></svg>