<svg xmlns="http://www.w3.org/2000/svg" viewBox="0 0 1440.8 1501.84"><defs><style>.cls-1,.cls-4{fill:#429cbc;}.cls-2{fill:#2e86ab;}.cls-3{fill:#2e00ab;}.cls-10,.cls-4,.cls-5,.cls-6{stroke:#ffd166;}.cls-10,.cls-4,.cls-5,.cls-6,.cls-9{stroke-linecap:round;stroke-miterlimit:10;}.cls-10,.cls-4{stroke-width:14px;}.cls-10,.cls-5,.cls-6,.cls-9{fill:none;}.cls-5,.cls-6{stroke-width:8px;}.cls-6{stroke-dasharray:9.98 9.98;}.cls-7{fill:#244247;}.cls-8{fill:#ffd166;}.cls-9{stroke:#2e86ab;stroke-width:60px;}</style></defs><title>thing3</title><g id="Layer_6" data-name="Layer 6"><path class="cls-1" d="M681.31,116.18a67.53,67.53,0,0,1,5-5.44c.85-.81,1.7-1.66,2.57-2.42l2.61-2.18c.87-.74,1.75-1.38,2.64-2s1.77-1.29,2.67-1.89c1.8-1.13,3.58-2.34,5.42-3.3a83.29,83.29,0,0,1,22.86-8.66l3-.62c1-.19,2-.32,3.06-.47,2-.32,4.13-.48,6.22-.62,1-.1,2.11-.1,3.17-.11s2.13,0,3.2,0l3.26.19,1.63.12,1.65.21,3.3.48c1.1.19,2.23.47,3.33.71a60.84,60.84,0,0,1,6.63,2c1.09.34,2.19.87,3.27,1.31s2.17.91,3.22,1.49a53,53,0,0,1,6.14,3.68c1,.69,2,1.37,2.89,2.1s1.81,1.55,2.7,2.33l1.31,1.19c.42.41.81.84,1.21,1.27.79.85,1.58,1.71,2.34,2.58s1.4,1.79,2.09,2.69,1.33,1.83,1.95,2.75c1.09,1.87,2.26,3.75,3.17,5.65a66.89,66.89,0,0,1,6.26,22.15,103.47,103.47,0,0,1,.08,20c-.27,3.2-.68,6.39-1.25,9.62a90.87,90.87,0,0,1-2.19,9.67,74.06,74.06,0,0,1-8.08,18.79A60.94,60.94,0,0,1,775.07,215a68,68,0,0,1-16.79,9.83,111.51,111.51,0,0,1-17.1,5.3c-5.56,1.33-11,2.32-15.94,3.65a28.8,28.8,0,0,0-6.39,2.4,5.38,5.38,0,0,0-2.74,2.85l-.89,1.68a54.62,54.62,0,0,0-4.49,15.08,69.81,69.81,0,0,0-.55,16.37,71.51,71.51,0,0,1-3.19-16.5,59.9,59.9,0,0,1,1.13-17.37l.58-2.18a14.94,14.94,0,0,1,.79-2.45,15.4,15.4,0,0,1,3.42-4.73,36.51,36.51,0,0,1,8-5.55c5.31-2.83,10.41-5,15.22-7.38a94,94,0,0,0,13.25-7.7,46.28,46.28,0,0,0,10-9.41c5.25-6.87,7.52-14.82,7.85-23.64a60.34,60.34,0,0,0-.08-6.71c-.13-2.26-.37-4.58-.71-6.88a66.14,66.14,0,0,0-3.08-12.8,25.49,25.49,0,0,0-5.07-8.74,8.43,8.43,0,0,0-5.17-2.84,15.24,15.24,0,0,0-5.5.42,28.25,28.25,0,0,0-7.41,2.89,28.57,28.57,0,0,0-7,5.31c-2,2-3.08,4.17-3.11,5.2a33.74,33.74,0,1,1-59.25-22.84Z"/><circle class="cls-1" cx="712.72" cy="301.93" r="18.21"/><rect class="cls-2" x="504.43" y="359.94" width="439" height="738" rx="219.5" ry="219.5"/><path class="cls-3" d="M831.94,623.58a103.2,103.2,0,0,1-4.65,17.32c-.49,1.44-1.07,2.86-1.67,4.28s-1.24,2.84-1.9,4.26c-1.35,2.83-2.93,5.62-4.64,8.44a64,64,0,0,1-14.08,16,52.61,52.61,0,0,1-10.5,6.46,54.57,54.57,0,0,1-13,4.07A83.26,83.26,0,0,1,767,685.7a61,61,0,0,1-14.61-1.61,38,38,0,0,1-12.49-5.46,33.4,33.4,0,0,1-8.72-8.79,41.94,41.94,0,0,1-7.25-21.77,45.27,45.27,0,0,1,1.12-12,42.8,42.8,0,0,1,2-6.29c.45-1.09.89-2.15,1.39-3.22l.87-1.66.45-.83c.18-.28.35-.58.52-.88a5.11,5.11,0,0,1,4.77-2.54l.69.05c9.9.69,16.84,1.84,22.8,2.79s10.41,1.92,13.76,2.63a9.45,9.45,0,0,1,3.72,1.43,4.19,4.19,0,0,1,1.41,2.68c.22,1.11.34,2.39.64,3.52a5.16,5.16,0,0,0,1.5,2.67,7.09,7.09,0,0,0,2.85,1.48,14.42,14.42,0,0,0,4.43.45,26.63,26.63,0,0,0,5.7-.74,42.35,42.35,0,0,0,6.44-1.92c2.22-.84,4.49-1.82,6.77-2.95s4.61-2.35,7-3.67c4.65-2.66,9.42-5.63,14.28-8.77l0,0a3.26,3.26,0,0,1,5,3.32Z"/><path class="cls-3" d="M624.44,620.29c4.86,3.14,9.62,6.11,14.28,8.77,2.35,1.32,4.64,2.58,6.95,3.67s4.56,2.11,6.78,2.95a42.58,42.58,0,0,0,6.43,1.92,26.71,26.71,0,0,0,5.7.74,14.45,14.45,0,0,0,4.44-.45,7.16,7.16,0,0,0,2.85-1.48,5.15,5.15,0,0,0,1.49-2.67c.31-1.13.43-2.41.65-3.52a4.19,4.19,0,0,1,1.41-2.68,9.45,9.45,0,0,1,3.72-1.43c3.35-.71,7.89-1.64,13.75-2.63s12.91-2.1,22.81-2.79l.68-.05a5.13,5.13,0,0,1,4.78,2.54c.17.3.34.6.51.88l.45.83.88,1.66c.5,1.07.94,2.13,1.39,3.22a42.8,42.8,0,0,1,2,6.29,45.69,45.69,0,0,1,1.12,12,41.94,41.94,0,0,1-7.25,21.77,33.59,33.59,0,0,1-8.73,8.79A38,38,0,0,1,699,684.09a61,61,0,0,1-14.61,1.61,83.26,83.26,0,0,1-14.53-1.33,54.79,54.79,0,0,1-13-4.07,52.52,52.52,0,0,1-10.49-6.46,63.83,63.83,0,0,1-14.08-16,91.58,91.58,0,0,1-4.64-8.44c-.66-1.42-1.33-2.83-1.9-4.26s-1.18-2.84-1.67-4.28a103.2,103.2,0,0,1-4.65-17.32,3.26,3.26,0,0,1,5-3.32Z"/><circle class="cls-4" cx="646.43" cy="544.96" r="42"/><path class="cls-5" d="M613.64,571.2s-.91,1.57-2.56,4.29"/><path class="cls-6" d="M605.79,583.94c-24.51,38.18-98.2,139.89-101.26-11.37"/><path class="cls-5" d="M504.45,567.57c0-1.64,0-3.3,0-5"/><circle class="cls-7" cx="646.43" cy="551.44" r="8"/><circle cx="819.28" cy="551.44" r="8"/><path class="cls-8" d="M408.57,714.53a75.06,75.06,0,0,1-10.22,2.74,90,90,0,0,1-10.21,1.25c-3.39.19-6.75.21-10.07.09s-6.62-.42-9.88-.81a159.15,159.15,0,0,1-37.5-9.65,152,152,0,0,0,18.91,2.49,146.22,146.22,0,0,0,18.83.16c3.1-.2,6.18-.51,9.22-.93s6-1,9-1.74a79.52,79.52,0,0,0,8.47-2.66,63.44,63.44,0,0,0,7.74-3.7A7,7,0,1,1,409.76,714a6.79,6.79,0,0,1-1.13.52Z"/><path class="cls-8" d="M334.89,699.5a64.59,64.59,0,0,0,7.62,4.49,79.25,79.25,0,0,0,8.38,3.46c2.89,1,5.85,1.84,8.87,2.56s6.08,1.28,9.17,1.76a147.12,147.12,0,0,0,18.83,1.55,151.65,151.65,0,0,0,19-.77,151.84,151.84,0,0,1-18.93,3.26,150.09,150.09,0,0,1-19.35.94q-4.89-.11-9.79-.58t-9.8-1.48a89.48,89.48,0,0,1-9.72-2.6,73.66,73.66,0,0,1-9.47-4,5,5,0,1,1,4.56-8.92,5.64,5.64,0,0,1,.53.31Z"/><path class="cls-2" d="M1081,683.83c-3.3,1.91-6.61,3.75-9.92,5.48l-5.79,2.9c-2,.9-3.87,1.83-5.82,2.66-3.88,1.68-7.71,3.28-11.59,4.55a108.2,108.2,0,0,1-22.6,5.34,73.13,73.13,0,0,1-20.58-.21,33.13,33.13,0,0,1-9.2-3,71,71,0,0,1-8.17-4.86,64.53,64.53,0,0,0-7.89-4.57,63.07,63.07,0,0,0-8.93-3.31c-6.47-1.9-13.72-3.92-22.08-6.09-4.17-1.08-8.66-2.16-13.49-3.27-2.44-.54-4.93-1.11-7.59-1.65-1.32-.28-2.69-.53-4.08-.81l-2.16-.37-1.08-.2-1.12-.15-.76-.08a3.88,3.88,0,0,0-4.27,3.35c0,.42-.12.83-.18,1.24L913.6,682l-.2,2.33c-.07,1.52-.1,3,0,4.5a61.06,61.06,0,0,0,.9,8.65,67.72,67.72,0,0,0,4.93,16,75,75,0,0,0,20,26.55,59.66,59.66,0,0,0,14.64,9.18A61.72,61.72,0,0,0,971,753.82a102.67,102.67,0,0,0,18,.48c5.93-.31,11.75-1,17.43-1.78a105.12,105.12,0,0,0,16.53-3.79,107,107,0,0,0,15.17-6.17,116.2,116.2,0,0,0,13.54-8.1,139.42,139.42,0,0,0,12-9.44,153.45,153.45,0,0,0,19.8-21.41c1.23-1.59,2.41-3.21,3.57-4.84A43.86,43.86,0,0,1,1081,683.83Z"/><path class="cls-1" d="M356.75,699.53a154.72,154.72,0,0,0,18.47,18.17,90.42,90.42,0,0,0,9.9,7l1.24.77,1.28.71c.85.46,1.67,1,2.52,1.38l2.56,1.23c.84.41,1.73.73,2.57,1.09a62.15,62.15,0,0,0,20.4,4.66,67.16,67.16,0,0,0,10-.07,75.07,75.07,0,0,0,10-1.43,44.53,44.53,0,0,0,9.92-3.37c3.25-1.51,6.42-3.33,9.58-5.06a67.58,67.58,0,0,1,9.75-4.49,64.79,64.79,0,0,1,10.73-2.73,191.55,191.55,0,0,1,24.77-2.54c4.51-.19,9.29-.17,14.35,0,2.55.12,5.15.25,7.88.5,1.35.1,2.76.25,4.18.41l2.19.29,1.09.14,1.13.2.39.07a4.09,4.09,0,0,1,3.31,4.65l-.19,1.21-.22,1.13-.48,2.25c-.37,1.45-.76,2.88-1.22,4.25a70.5,70.5,0,0,1-3.09,7.88,78.62,78.62,0,0,1-8.2,13.81,85.28,85.28,0,0,1-22.57,21,60.64,60.64,0,0,1-14,6.69,64.3,64.3,0,0,1-15.63,2.93,139.7,139.7,0,0,1-16.37,0c-5.48-.26-11-.72-16.43-1.25a102.75,102.75,0,0,1-32.22-8.22,89.49,89.49,0,0,1-14.45-8.2,91.49,91.49,0,0,1-12.33-10.48,94,94,0,0,1-17.37-25,112.59,112.59,0,0,1-8.9-27,3.1,3.1,0,0,1,5.37-2.64Z"/><rect class="cls-2" x="1082.93" y="684.44" width="7" height="13" rx="3.5" ry="3.5" transform="translate(-130.79 271.3) rotate(-13.43)"/><path class="cls-9" d="M835.93,1194.44c45.16-158.79-31.5-201.15-14-187.66"/><path class="cls-9" d="M611.93,1194.44c41-177.78-7-176.68-7-176.68"/><path class="cls-1" d="M883.25,428.85a218,218,0,0,1,41.18,127.59v299c0,120.72-98.78,219.5-219.5,219.5h0A219,219,0,0,1,545.6,1006c39.93,55.56,105.09,91.92,178.33,91.92h0c120.72,0,219.5-98.78,219.5-219.5v-299A218.67,218.67,0,0,0,883.25,428.85Z"/><path class="cls-10" d="M388.69,1040.15V714.74"/></g></svg>