<svg xmlns="http://www.w3.org/2000/svg" viewBox="0 0 1440.8 1501.84"><defs><style>.cls-1,.cls-14,.cls-17,.cls-18,.cls-19,.cls-7{fill:none;stroke-miterlimit:10;}.cls-1{stroke:#e09999;stroke-width:60px;}.cls-1,.cls-14,.cls-18,.cls-19,.cls-7{stroke-linecap:round;}.cls-2{fill:#ebbab9;}.cls-3{fill:#f4dfdf;}.cls-4{fill:#e09999;}.cls-5{fill:#c2e9f2;}.cls-12,.cls-6{fill:#06d6a0;}.cls-14,.cls-18,.cls-19,.cls-7{stroke:#ffd166;}.cls-18,.cls-19,.cls-7{stroke-width:8px;}.cls-7{stroke-dasharray:10;}.cls-8{fill:#1a5e91;opacity:0.22;}.cls-9{fill:#fff;}.cls-10{fill:#2e00ab;}.cls-11{fill:#3706ea;}.cls-12{opacity:0.58;}.cls-13{fill:#ffd166;}.cls-14{stroke-width:14px;}.cls-15{fill:#227a99;}.cls-16{fill:#2e86ab;}.cls-17{stroke:#3706ea;stroke-width:6px;}.cls-19{stroke-dasharray:10.39 10.39;}</style></defs><title>thing1</title><g id="Layer_6" data-name="Layer 6"><path class="cls-1" d="M883.68,769s97.24-26,128,29.7c32,58-100.78,106.17-100.78,106.17"/><path class="cls-1" d="M689,1060.4c-20.24-13.19-49.81-15.92-67.89,3-5.51,5.88-8.34,13.43-10.53,21.75-7.08,38.41,4.39,75.68,15.11,111.32"/><path class="cls-1" d="M764.84,1060.4c20.24-13.19,49.81-15.92,67.89,3,5.51,5.88,8.34,13.43,10.52,21.75,7.09,38.41-4.39,75.68-15.1,111.32"/><path class="cls-1" d="M552,787c-20.24-13.19-49.81-15.92-67.89,3-5.51,5.88-8.33,13.43-10.52,21.75C466.47,850.13,478,887.4,488.66,923"/><path class="cls-2" d="M655.19,453.53H813.3a128,128,0,0,1,128,128V902.42a207,207,0,0,1-207,207h0a207,207,0,0,1-207-207V581.53A128,128,0,0,1,655.19,453.53Z"/><path class="cls-3" d="M883.21,472.14c20.82,20.25,33.55,47.16,33.55,76.59V906.84c0,101.22-93.17,184-207,184h0c-45.23,0-87.18-13.07-121.34-35.16,37.5,33.17,89.11,53.75,145.87,53.75h0c113.87,0,207-82.82,207-184.05V567.31C941.29,527.62,918.12,492.51,883.21,472.14Z"/><path class="cls-4" d="M551.73,943V584.89c0-62.58,57.6-113.78,128-113.78H837.83a138.61,138.61,0,0,1,69.91,18.61c-23.45-22.82-57.15-37.19-94.44-37.19H655.19c-70.39,0-128,51.2-128,113.78V924.42c0,61,33.87,115.35,85.71,148.88C575.17,1039.92,551.73,993.78,551.73,943Z"/><path class="cls-5" d="M403.77,964.4s79.44-44.27,87.26-56,32.55-101.58,32.55-101.58L681.15,927.94s-49.48,93.76-57.29,97.67-138,74.23-138,74.23Z"/><path class="cls-6" d="M446.74,969.61s11.78-19,19.63-22.26,38.29,19.16,49.09,6,0-60.3,9.82-68.16,54,13.75,54,28.47,28.47,32.4,24.55,50.07-20.62,27.49-16.69,33.38,24.54,20.62,23.56,24.54-94.25,8.84-99.16,31.42-43.19,10.8-47.12-23.56S444.78,987.28,446.74,969.61Z"/><path class="cls-7" d="M493.77,1015.72s-1.35-24,6.38-25.14,16.5,33,30.83-19.83c5.92-21.81,22.12,25.82,44.12,16.3"/><path class="cls-7" d="M564.07,974.08s-7.19-20.12-3.84-25.39-3.35-31.66-7.19-36"/><path class="cls-3" d="M485.33,1021.49c5.59,2.49,11.22,6.32,14.65,11.44,1.06,1.6,3.66.1,2.59-1.51-3.72-5.56-9.66-9.81-15.73-12.52-1.75-.77-3.27,1.81-1.51,2.59Z"/><path class="cls-3" d="M486.77,1031.19a29.65,29.65,0,0,1,15.27-7.5c1.91-.26,1.1-3.15-.79-2.89-6.14.82-12,4.17-16.6,8.27-1.44,1.29.69,3.41,2.12,2.12Z"/><path class="cls-8" d="M477.69,919.63c-1.51,1,75.35,75.93,133,102,0,0-120.05-69.79-119.66-113.23C491,908.41,488.42,912.34,477.69,919.63Z"/><path class="cls-1" d="M471.42,840.31C472.33,869,480.33,896,488.66,923"/><path class="cls-9" d="M665.63,616.81h0a26.8,26.8,0,0,1,26.8,26.8v51.54a12,12,0,0,1-12,12H650.83a12,12,0,0,1-12-12V643.62a26.8,26.8,0,0,1,26.8-26.8Z"/><path class="cls-9" d="M812.74,616.81h0a26.8,26.8,0,0,1,26.8,26.8v51.54a12,12,0,0,1-12,12H797.94a12,12,0,0,1-12-12V643.62a26.8,26.8,0,0,1,26.8-26.8Z"/><path d="M686.61,690A12.31,12.31,0,1,1,662,690c0-6.8,5.51-7.33,12.31-7.33S686.61,683.2,686.61,690Z"/><polygon class="cls-10" points="1018.65 850.91 956.37 850.91 925.23 904.85 956.37 958.79 1018.65 958.79 1049.8 904.85 1018.65 850.91"/><polygon class="cls-11" points="1018.65 850.91 956.37 850.91 925.23 904.85 987.51 921.13 1049.8 904.85 1018.65 850.91"/><path class="cls-1" d="M975.05,769.17c23.09,7.13,44.09,28.13,41.09,54.13-1,8-5,15-10,22-25,30-61,45-95.26,59.55"/><path d="M835.09,690a12.31,12.31,0,1,1-24.61,0c0-6.8,5.5-7.33,12.3-7.33S835.09,683.2,835.09,690Z"/><path class="cls-12" d="M690.84,658H674.77a18,18,0,0,0-15.62,9l-8,13.91a18.05,18.05,0,0,0,0,18l8,13.92a18,18,0,0,0,15.62,9h16.07a18,18,0,0,0,15.62-9l8-13.92a18.05,18.05,0,0,0,0-18l-8-13.91A18,18,0,0,0,690.84,658Z"/><path class="cls-12" d="M820.37,658H804.3a18,18,0,0,0-15.62,9l-8,13.91a18.05,18.05,0,0,0,0,18l8,13.92a18,18,0,0,0,15.62,9h16.07a18,18,0,0,0,15.62-9L844,699a18.05,18.05,0,0,0,0-18l-8-13.91A18,18,0,0,0,820.37,658Z"/><path class="cls-13" d="M690.84,658a18,18,0,0,1,15.62,9l8,13.91a18.05,18.05,0,0,1,0,18l-8,13.92a18,18,0,0,1-15.62,9H674.77a18,18,0,0,1-15.62-9l-8-13.92a18.05,18.05,0,0,1,0-18l8-13.91a18,18,0,0,1,15.62-9h16.07m0-14H674.77a32.13,32.13,0,0,0-27.75,16L639,674a32.11,32.11,0,0,0,0,32l8,13.92a32.14,32.14,0,0,0,27.75,16h16.07a32.14,32.14,0,0,0,27.75-16l8-13.92a32.11,32.11,0,0,0,0-32l-8-13.91a32.13,32.13,0,0,0-27.75-16Z"/><path class="cls-13" d="M820.37,658a18,18,0,0,1,15.62,9L844,681a18.05,18.05,0,0,1,0,18l-8,13.92a18,18,0,0,1-15.62,9H804.3a18,18,0,0,1-15.62-9l-8-13.92a18.05,18.05,0,0,1,0-18l8-13.91a18,18,0,0,1,15.62-9h16.07m0-14H804.3a32.13,32.13,0,0,0-27.75,16l-8,13.91a32.11,32.11,0,0,0,0,32l8,13.92a32.14,32.14,0,0,0,27.75,16h16.07a32.14,32.14,0,0,0,27.75-16l8-13.92a32.11,32.11,0,0,0,0-32l-8-13.91a32.13,32.13,0,0,0-27.75-16Z"/><line class="cls-14" x1="726.19" y1="690" x2="767.5" y2="690"/><path class="cls-15" d="M509.89,430.43h472A58.09,58.09,0,0,1,1040,488.52v0a12,12,0,0,1-12,12H463.8a12,12,0,0,1-12-12v0a58.09,58.09,0,0,1,58.09-58.09Z"/><rect class="cls-16" x="546.53" y="340.29" width="386.06" height="168" rx="12" ry="12"/><rect class="cls-13" x="542.46" y="445.69" width="395.12" height="62.6" rx="12" ry="12"/><path class="cls-16" d="M982.29,545.37H511.4a59.78,59.78,0,0,1-59.6-59.6h0c0-32.78,21.68,0,54.46,0H977.15c32.78,0,64.74-32.78,64.74,0h0A59.78,59.78,0,0,1,982.29,545.37Z"/><path class="cls-10" d="M969.67,836.79A62,62,0,0,1,984,827q1-.51,2-.93c.67-.29,1.33-.6,2-.87,1.39-.5,2.75-1.07,4.18-1.44a40.09,40.09,0,0,1,8.75-1.61,32.78,32.78,0,0,1,17.54,3.94,42.26,42.26,0,0,1,13.31,12.12c.45.59.94,1.17,1.36,1.79l1.2,1.88,1.22,1.87a17,17,0,0,1,1.15,1.91l2.13,3.91c.75,1.29,1.27,2.67,1.91,4s1.22,2.7,1.77,4.07l1.46,4.16c.44,1.4,1,2.77,1.32,4.2l1.08,4.25c.32,1.43.74,2.83,1,4.27l.76,4.31.71,4.31c.18,1.44.33,2.88.48,4.33a134.42,134.42,0,0,1,.8,17.37.29.29,0,0,1-.3.3.3.3,0,0,1-.29-.21v0c-1.66-5.57-2.86-11.17-4.37-16.69-.36-1.38-.71-2.76-1-4.14l-1.17-4.11c-.77-2.73-1.44-5.48-2.35-8.15s-1.58-5.41-2.54-8l-1.31-4c-.46-1.32-1-2.61-1.47-3.92-.89-2.66-2.1-5.15-3.24-7.69a20.14,20.14,0,0,0-1-1.85l-1-1.8-1-1.81c-.35-.59-.77-1.13-1.16-1.7a38,38,0,0,0-11.43-11.48,29.34,29.34,0,0,0-15.42-4.39,37.84,37.84,0,0,0-8.24,1c-1.38.25-2.7.72-4.06,1.09-.67.22-1.32.48-2,.71s-1.32.49-2,.77a66.51,66.51,0,0,0-14.68,8.58h0a.29.29,0,0,1-.42,0A.31.31,0,0,1,969.67,836.79Z"/><path class="cls-17" d="M773.3,750.92a12,12,0,0,1-12,12H732.4a12,12,0,0,1-12-12"/><path class="cls-18" d="M916.76,906.84s.89,1.58,2.51,4.32"/><path class="cls-19" d="M924.64,920.06c25.4,41.06,103.68,154.88,107,3.62"/><path class="cls-18" d="M1031.71,918.47c0-1.64,0-3.31,0-5"/><path class="cls-9" d="M883.68,933.25a51.62,51.62,0,1,1,51.61-51.62A51.68,51.68,0,0,1,883.68,933.25Z"/><path class="cls-13" d="M883.68,837a44.62,44.62,0,1,1-44.62,44.62A44.62,44.62,0,0,1,883.68,837m0-14a58.62,58.62,0,1,0,58.61,58.62A58.69,58.69,0,0,0,883.68,823Z"/><polyline class="cls-14" points="878.88 858.91 878.88 886.95 911.3 886.95"/></g></svg>